{"title":"Neerja {2016} 1/3 DesiScr Rip XviD AC3 {Team DUS} - jnmjy","uid":13675786,"size":1559800600,"categoryP":"video","categoryS":"movies","magnet":"?xt=urn:btih:669244a71c0f28f15113738284c382d174516676&amp;dn=+Neerja+%7B2016%7D+1%2F3+DesiScr+Rip+XviD+AC3+%7BTeam+DUS%7D+-+jnmjy&amp;tr=udp%3A%2F%2Ftracker.leechers-paradise.org%3A6969&amp;tr=udp%3A%2F%2Fzer0day.ch%3A1337&amp;tr=udp%3A%2F%2Fopen.demonii.com%3A1337&amp;tr=udp%3A%2F%2Ftracker.coppersurfer.tk%3A6969&amp;tr=udp%3A%2F%2Fexodus.desync.com%3A6969","seeders":17,"leechers":0,"uploader":"makintos13","files":1,"time":1456402312,"description":"screens:\r\n \nhttp://imgmak.com/KN8 \nhttp://imgmak.com/KNL \nhttp://imgmak.com/KNX \nhttp://imgmak.com/KQC \nhttp://imgmak.com/KQK \nhttp://imgmak.com/KQT\r\n\r\nYear.............: 2016\r\nSource: A DUS Exclusive from ATMOS!\r\nRipper...........: jnmjy\r\n\r\nGeneral\r\nFormat                                   : AVI\r\nFormat/Info                              : Audio Video Interleave\r\nFile size                                : 1.45 GiB\r\nDuration                                 : 1h 52mn\r\nOverall bit rate                         : 1 857 Kbps\r\n\r\nVideo\r\nID                                       : 0\r\nFormat                                   : MPEG-4 Visual\r\nFormat profile                           : Advanced   \r\nFormat settings, BVOP                    : 2\r\nFormat settings, QPel                    : No\r\nFormat settings, GMC                     : No warppoints\r\nFormat settings, Matrix                  : Default (H.263)\r\nCodec ID                                 : XVID\r\nCodec ID/Hint                            : XviD\r\nDuration                                 : 1h 52mn\r\nBit rate                                 : 1 657 Kbps\r\nWidth                                    : 640 pixels\r\nHeight                                   : 288 pixels\r\nDisplay aspect ratio                     : 2.222\r\nFrame rate                               : 23.976 fps\r\nColor space                              : YUV\r\nChroma subsampling                       : 4:2:0\r\nBit depth                                : 8 bits\r\nScan type                                : Progressive\r\nCompression mode                         : Lossy\r\nBits/(Pixel*Frame)                       : 0.375\r\nStream size                              : 1.30 GiB (89%)\r\nWriting library                          : XviD 67\r\n\r\nAudio\r\nID                                       : 1\r\nFormat                                   : AC-3\r\nFormat/Info                              : Audio Coding 3\r\nMode extension                           : CM (complete main)\r\nFormat settings, Endianness              : Big\r\nCodec ID                                 : 2000\r\nDuration                                 : 1h 52mn\r\nBit rate mode                            : Constant\r\nBit rate                                 : 192 Kbps\r\nChannel(s)                               : 2 channels\r\nChannel positions                        : Front: L R\r\nSampling rate                            : 48.0 KHz\r\nCompression mode                         : Lossy\r\nStream size                              : 154 MiB (10%)\r\nAlignment                                : Aligned on interleaves\r\nInterleave, duration                     : 64 ms (1.53 video frames)\r\nInterleave, preload duration             : 192 ms","torrent":{"xt":"urn:btih:669244a71c0f28f15113738284c382d174516676","amp;dn":"+Neerja+%7B2016%7D+1%2F3+DesiScr+Rip+XviD+AC3+%7BTeam+DUS%7D+-+jnmjy","amp;tr":["udp%3A%2F%2Ftracker.leechers-paradise.org%3A6969","udp%3A%2F%2Fzer0day.ch%3A1337","udp%3A%2F%2Fopen.demonii.com%3A1337","udp%3A%2F%2Ftracker.coppersurfer.tk%3A6969","udp%3A%2F%2Fexodus.desync.com%3A6969"],"infoHash":"669244a71c0f28f15113738284c382d174516676","infoHashBuffer":{"type":"Buffer","data":[102,146,68,167,28,15,40,241,81,19,115,130,132,195,130,209,116,81,102,118]},"announce":[],"urlList":[]}}